<svg width="851" height="138" viewBox="0 0 851 138" fill="none" xmlns="http://www.w3.org/2000/svg">
    <defs>
        <style>
            svg .svg-elem-1 {
                stroke-dashoffset: 625.88818359375px;
                stroke-dasharray: 625.88818359375px;
                fill: transparent;
                animation: fill 0.7s cubic-bezier(0.47, 0, 0.745, 0.715) 1.7s both;
            }

            svg .svg-elem-2 {
                stroke-dashoffset: 613.698974609375px;
                stroke-dasharray: 613.698974609375px;
                fill: transparent;
                animation: fill 0.7s cubic-bezier(0.47, 0, 0.745, 0.715) 1.8s both;
            }

            svg .svg-elem-3 {
                stroke-dashoffset: 679.8017578125px;
                stroke-dasharray: 679.8017578125px;
                fill: transparent;
                animation: fill 0.7s cubic-bezier(0.47, 0, 0.745, 0.715) 1.9s both;
            }

            svg .svg-elem-4 {
                stroke-dashoffset: 679.8017578125px;
                stroke-dasharray: 679.8017578125px;
                fill: transparent;
                animation: fill 0.7s cubic-bezier(0.47, 0, 0.745, 0.715) 2s both;
            }

            svg .svg-elem-5 {
                stroke-dashoffset: 657.6024169921875px;
                stroke-dasharray: 657.6024169921875px;
                fill: transparent;
                animation: fill 0.7s cubic-bezier(0.47, 0, 0.745, 0.715) 2.1s both;
            }

            svg .svg-elem-6 {
                stroke-dashoffset: 672.029052734375px;
                stroke-dasharray: 672.029052734375px;
                fill: transparent;
                animation: fill 0.7s cubic-bezier(0.47, 0, 0.745, 0.715) 2.2s both;
            }

            svg .svg-elem-7 {
                stroke-dashoffset: 646.1105346679688px;
                stroke-dasharray: 646.1105346679688px;
                fill: transparent;
                animation: fill 0.7s cubic-bezier(0.47, 0, 0.745, 0.715) 2.3s both;
            }

            svg .svg-elem-8 {
                stroke-dashoffset: 625.88818359375px;
                stroke-dasharray: 625.88818359375px;
                animation: stroke 1s cubic-bezier(0.47, 0, 0.745, 0.715) 0.7s both;
            }

            svg .svg-elem-9 {
                stroke-dashoffset: 613.698974609375px;
                stroke-dasharray: 613.698974609375px;
                animation: stroke 1s cubic-bezier(0.47, 0, 0.745, 0.715) 0.8s both;
            }

            svg .svg-elem-10 {
                stroke-dashoffset: 679.8017578125px;
                stroke-dasharray: 679.8017578125px;
                animation: stroke 1s cubic-bezier(0.47, 0, 0.745, 0.715) 0.9s both;
            }

            svg .svg-elem-11 {
                stroke-dashoffset: 679.8017578125px;
                stroke-dasharray: 679.8017578125px;
                animation: stroke 1s cubic-bezier(0.47, 0, 0.745, 0.715) 1s both;
            }

            svg .svg-elem-12 {
                stroke-dashoffset: 657.6024169921875px;
                stroke-dasharray: 657.6024169921875px;
                animation: stroke 1s cubic-bezier(0.47, 0, 0.745, 0.715) 1.1s both;
            }

            svg .svg-elem-13 {
                stroke-dashoffset: 672.029052734375px;
                stroke-dasharray: 672.029052734375px;
                animation: stroke 1s cubic-bezier(0.47, 0, 0.745, 0.715) 1.2s both;
            }

            svg .svg-elem-14 {
                stroke-dashoffset: 646.1105346679688px;
                stroke-dasharray: 646.1105346679688px;
                animation: stroke 1s cubic-bezier(0.47, 0, 0.745, 0.715) 1.3s both;
            }

            @keyframes fill {
                to {
                    fill: rgb(255, 255, 255);
                }
            }

            @keyframes stroke {
                to {
                    stroke-dashoffset: 0;
                }
            }
        </style>
    </defs>
    <path
        d="M75.68 3.39999C91.4 3.39999 102.62 7.35999 109.34 15.28C114.26 21.28 116.72 28.78 116.72 37.78C116.72 41.02 116.42 44.44 115.82 48.04L108.8 88.18C106.4 101.74 100.52 112.6 91.16 120.76C81.8 128.92 69.68 133 54.8 133H2.42004L25.28 3.39999H75.68ZM64.34 31.48H52.64L39.86 104.92H56.96C62.6 104.92 66.98 103.42 70.1 100.42C73.34 97.3 75.5601 92.26 76.76 85.3L81.98 55.78C82.4601 53.14 82.7001 50.74 82.7001 48.58C82.7001 37.18 76.58 31.48 64.34 31.48Z"
        fill="white" class="svg-elem-1"></path>
    <path
        d="M185.328 133L186.408 104.74H156.348L147.528 133H113.148L159.408 3.39999H218.808L219.528 133H185.328ZM177.948 34.9L163.728 80.62H187.308L189.288 34.9H177.948Z"
        fill="white" class="svg-elem-2"></path>
    <path
        d="M359.321 3.39999L336.641 133H304.061L281.381 62.08L269.141 133H236.561L259.421 3.39999H292.901L315.221 69.64L326.921 3.39999H359.321Z"
        fill="white" class="svg-elem-3"></path>
    <path
        d="M484.828 3.39999L462.148 133H429.568L406.888 62.08L394.648 133H362.068L384.928 3.39999H418.408L440.728 69.64L452.428 3.39999H484.828Z"
        fill="white" class="svg-elem-4"></path>
    <path
        d="M577.936 133H487.576L510.436 3.39999H600.796L595.756 31.48H537.796L533.656 55.78H581.536L576.496 83.86H528.616L525.016 104.92H582.976L577.936 133Z"
        fill="white" class="svg-elem-5"></path>
    <path
        d="M633.05 96.1C633.05 104.38 638.99 108.52 650.87 108.52C662.87 108.52 668.87 104.8 668.87 97.36C668.87 93.4 666.83 90.16 662.75 87.64C658.67 85.12 653.69 83.02 647.81 81.34C642.05 79.66 636.23 77.74 630.35 75.58C624.59 73.3 619.67 69.82 615.59 65.14C611.51 60.34 609.47 54.4 609.47 47.32C609.47 17.2 628.85 2.13998 667.61 2.13998C681.77 2.13998 692.45 4.83999 699.65 10.24C706.97 15.52 710.63 22.9 710.63 32.38C710.63 35.86 710.15 39.22 709.19 42.46C708.35 45.58 707.45 47.8 706.49 49.12L705.05 51.28H673.19C675.83 48.52 677.15 45.04 677.15 40.84C677.15 33.04 672.05 29.14 661.85 29.14C649.01 29.14 642.59 33.22 642.59 41.38C642.59 45.46 644.63 48.7 648.71 51.1C652.79 53.5 657.71 55.42 663.47 56.86C669.35 58.18 675.23 59.86 681.11 61.9C686.99 63.94 691.97 67.36 696.05 72.16C700.13 76.84 702.17 82.96 702.17 90.52C702.17 105.76 697.61 117.1 688.49 124.54C679.37 131.86 665.33 135.52 646.37 135.52C627.41 135.52 614.45 132.16 607.49 125.44C602.33 120.4 599.75 113.44 599.75 104.56C599.75 101.2 600.11 97.54 600.83 93.58L601.37 90.7H633.77L633.41 92.86C633.17 94.06 633.05 95.14 633.05 96.1Z"
        fill="white" class="svg-elem-6"></path>
    <path
        d="M845.939 3.39999L795.179 68.74L823.079 133H786.179L768.539 91.6L738.839 133H701.939L749.639 68.74L724.799 3.39999H761.699L776.639 45.52L809.039 3.39999H845.939Z"
        fill="white" class="svg-elem-7"></path>
    <path
        d="M75.68 3.39999C91.4 3.39999 102.62 7.35999 109.34 15.28C114.26 21.28 116.72 28.78 116.72 37.78C116.72 41.02 116.42 44.44 115.82 48.04L108.8 88.18C106.4 101.74 100.52 112.6 91.16 120.76C81.8 128.92 69.68 133 54.8 133H2.42004L25.28 3.39999H75.68ZM64.34 31.48H52.64L39.86 104.92H56.96C62.6 104.92 66.98 103.42 70.1 100.42C73.34 97.3 75.5601 92.26 76.76 85.3L81.98 55.78C82.4601 53.14 82.7001 50.74 82.7001 48.58C82.7001 37.18 76.58 31.48 64.34 31.48Z"
        stroke="white" stroke-width="4" class="svg-elem-8"></path>
    <path
        d="M185.328 133L186.408 104.74H156.348L147.528 133H113.148L159.408 3.39999H218.808L219.528 133H185.328ZM177.948 34.9L163.728 80.62H187.308L189.288 34.9H177.948Z"
        stroke="white" stroke-width="4" class="svg-elem-9"></path>
    <path
        d="M359.321 3.39999L336.641 133H304.061L281.381 62.08L269.141 133H236.561L259.421 3.39999H292.901L315.221 69.64L326.921 3.39999H359.321Z"
        stroke="white" stroke-width="4" class="svg-elem-10"></path>
    <path
        d="M484.828 3.39999L462.148 133H429.568L406.888 62.08L394.648 133H362.068L384.928 3.39999H418.408L440.728 69.64L452.428 3.39999H484.828Z"
        stroke="white" stroke-width="4" class="svg-elem-11"></path>
    <path
        d="M577.936 133H487.576L510.436 3.39999H600.796L595.756 31.48H537.796L533.656 55.78H581.536L576.496 83.86H528.616L525.016 104.92H582.976L577.936 133Z"
        stroke="white" stroke-width="4" class="svg-elem-12"></path>
    <path
        d="M633.05 96.1C633.05 104.38 638.99 108.52 650.87 108.52C662.87 108.52 668.87 104.8 668.87 97.36C668.87 93.4 666.83 90.16 662.75 87.64C658.67 85.12 653.69 83.02 647.81 81.34C642.05 79.66 636.23 77.74 630.35 75.58C624.59 73.3 619.67 69.82 615.59 65.14C611.51 60.34 609.47 54.4 609.47 47.32C609.47 17.2 628.85 2.13998 667.61 2.13998C681.77 2.13998 692.45 4.83999 699.65 10.24C706.97 15.52 710.63 22.9 710.63 32.38C710.63 35.86 710.15 39.22 709.19 42.46C708.35 45.58 707.45 47.8 706.49 49.12L705.05 51.28H673.19C675.83 48.52 677.15 45.04 677.15 40.84C677.15 33.04 672.05 29.14 661.85 29.14C649.01 29.14 642.59 33.22 642.59 41.38C642.59 45.46 644.63 48.7 648.71 51.1C652.79 53.5 657.71 55.42 663.47 56.86C669.35 58.18 675.23 59.86 681.11 61.9C686.99 63.94 691.97 67.36 696.05 72.16C700.13 76.84 702.17 82.96 702.17 90.52C702.17 105.76 697.61 117.1 688.49 124.54C679.37 131.86 665.33 135.52 646.37 135.52C627.41 135.52 614.45 132.16 607.49 125.44C602.33 120.4 599.75 113.44 599.75 104.56C599.75 101.2 600.11 97.54 600.83 93.58L601.37 90.7H633.77L633.41 92.86C633.17 94.06 633.05 95.14 633.05 96.1Z"
        stroke="white" stroke-width="4" class="svg-elem-13"></path>
    <path
        d="M845.939 3.39999L795.179 68.74L823.079 133H786.179L768.539 91.6L738.839 133H701.939L749.639 68.74L724.799 3.39999H761.699L776.639 45.52L809.039 3.39999H845.939Z"
        stroke="white" stroke-width="4" class="svg-elem-14"></path>
</svg>