<svg width="1500" height="500" viewBox="0 0 1500 500" fill="none" xmlns="http://www.w3.org/2000/svg">
<rect width="1500" height="500" fill="url(#paint0_linear_102_5)"/>
<path d="M408.68 176.4C424.4 176.4 435.62 180.36 442.34 188.28C447.26 194.28 449.72 201.78 449.72 210.78C449.72 214.02 449.42 217.44 448.82 221.04L441.8 261.18C439.4 274.74 433.52 285.6 424.16 293.76C414.8 301.92 402.68 306 387.8 306H335.42L358.28 176.4H408.68ZM397.34 204.48H385.64L372.86 277.92H389.96C395.6 277.92 399.98 276.42 403.1 273.42C406.34 270.3 408.56 265.26 409.76 258.3L414.98 228.78C415.46 226.14 415.7 223.74 415.7 221.58C415.7 210.18 409.58 204.48 397.34 204.48Z" fill="white"/>
<path d="M518.328 306L519.408 277.74H489.348L480.528 306H446.148L492.408 176.4H551.808L552.528 306H518.328ZM510.948 207.9L496.728 253.62H520.308L522.288 207.9H510.948Z" fill="white"/>
<path d="M692.321 176.4L669.641 306H637.061L614.381 235.08L602.141 306H569.561L592.421 176.4H625.901L648.221 242.64L659.921 176.4H692.321Z" fill="white"/>
<path d="M817.828 176.4L795.148 306H762.568L739.888 235.08L727.648 306H695.068L717.928 176.4H751.408L773.728 242.64L785.428 176.4H817.828Z" fill="white"/>
<path d="M910.936 306H820.576L843.436 176.4H933.796L928.756 204.48H870.796L866.656 228.78H914.536L909.496 256.86H861.616L858.016 277.92H915.976L910.936 306Z" fill="white"/>
<path d="M966.05 269.1C966.05 277.38 971.99 281.52 983.87 281.52C995.87 281.52 1001.87 277.8 1001.87 270.36C1001.87 266.4 999.83 263.16 995.75 260.64C991.67 258.12 986.69 256.02 980.81 254.34C975.05 252.66 969.23 250.74 963.35 248.58C957.59 246.3 952.67 242.82 948.59 238.14C944.51 233.34 942.47 227.4 942.47 220.32C942.47 190.2 961.85 175.14 1000.61 175.14C1014.77 175.14 1025.45 177.84 1032.65 183.24C1039.97 188.52 1043.63 195.9 1043.63 205.38C1043.63 208.86 1043.15 212.22 1042.19 215.46C1041.35 218.58 1040.45 220.8 1039.49 222.12L1038.05 224.28H1006.19C1008.83 221.52 1010.15 218.04 1010.15 213.84C1010.15 206.04 1005.05 202.14 994.85 202.14C982.01 202.14 975.59 206.22 975.59 214.38C975.59 218.46 977.63 221.7 981.71 224.1C985.79 226.5 990.71 228.42 996.47 229.86C1002.35 231.18 1008.23 232.86 1014.11 234.9C1019.99 236.94 1024.97 240.36 1029.05 245.16C1033.13 249.84 1035.17 255.96 1035.17 263.52C1035.17 278.76 1030.61 290.1 1021.49 297.54C1012.37 304.86 998.33 308.52 979.37 308.52C960.41 308.52 947.45 305.16 940.49 298.44C935.33 293.4 932.75 286.44 932.75 277.56C932.75 274.2 933.11 270.54 933.83 266.58L934.37 263.7H966.77L966.41 265.86C966.17 267.06 966.05 268.14 966.05 269.1Z" fill="white"/>
<path d="M1178.94 176.4L1128.18 241.74L1156.08 306H1119.18L1101.54 264.6L1071.84 306H1034.94L1082.64 241.74L1057.8 176.4H1094.7L1109.64 218.52L1142.04 176.4H1178.94Z" fill="white"/>
<path d="M408.68 176.4C424.4 176.4 435.62 180.36 442.34 188.28C447.26 194.28 449.72 201.78 449.72 210.78C449.72 214.02 449.42 217.44 448.82 221.04L441.8 261.18C439.4 274.74 433.52 285.6 424.16 293.76C414.8 301.92 402.68 306 387.8 306H335.42L358.28 176.4H408.68ZM397.34 204.48H385.64L372.86 277.92H389.96C395.6 277.92 399.98 276.42 403.1 273.42C406.34 270.3 408.56 265.26 409.76 258.3L414.98 228.78C415.46 226.14 415.7 223.74 415.7 221.58C415.7 210.18 409.58 204.48 397.34 204.48Z" stroke="white" stroke-width="4"/>
<path d="M518.328 306L519.408 277.74H489.348L480.528 306H446.148L492.408 176.4H551.808L552.528 306H518.328ZM510.948 207.9L496.728 253.62H520.308L522.288 207.9H510.948Z" stroke="white" stroke-width="4"/>
<path d="M692.321 176.4L669.641 306H637.061L614.381 235.08L602.141 306H569.561L592.421 176.4H625.901L648.221 242.64L659.921 176.4H692.321Z" stroke="white" stroke-width="4"/>
<path d="M817.828 176.4L795.148 306H762.568L739.888 235.08L727.648 306H695.068L717.928 176.4H751.408L773.728 242.64L785.428 176.4H817.828Z" stroke="white" stroke-width="4"/>
<path d="M910.936 306H820.576L843.436 176.4H933.796L928.756 204.48H870.796L866.656 228.78H914.536L909.496 256.86H861.616L858.016 277.92H915.976L910.936 306Z" stroke="white" stroke-width="4"/>
<path d="M966.05 269.1C966.05 277.38 971.99 281.52 983.87 281.52C995.87 281.52 1001.87 277.8 1001.87 270.36C1001.87 266.4 999.83 263.16 995.75 260.64C991.67 258.12 986.69 256.02 980.81 254.34C975.05 252.66 969.23 250.74 963.35 248.58C957.59 246.3 952.67 242.82 948.59 238.14C944.51 233.34 942.47 227.4 942.47 220.32C942.47 190.2 961.85 175.14 1000.61 175.14C1014.77 175.14 1025.45 177.84 1032.65 183.24C1039.97 188.52 1043.63 195.9 1043.63 205.38C1043.63 208.86 1043.15 212.22 1042.19 215.46C1041.35 218.58 1040.45 220.8 1039.49 222.12L1038.05 224.28H1006.19C1008.83 221.52 1010.15 218.04 1010.15 213.84C1010.15 206.04 1005.05 202.14 994.85 202.14C982.01 202.14 975.59 206.22 975.59 214.38C975.59 218.46 977.63 221.7 981.71 224.1C985.79 226.5 990.71 228.42 996.47 229.86C1002.35 231.18 1008.23 232.86 1014.11 234.9C1019.99 236.94 1024.97 240.36 1029.05 245.16C1033.13 249.84 1035.17 255.96 1035.17 263.52C1035.17 278.76 1030.61 290.1 1021.49 297.54C1012.37 304.86 998.33 308.52 979.37 308.52C960.41 308.52 947.45 305.16 940.49 298.44C935.33 293.4 932.75 286.44 932.75 277.56C932.75 274.2 933.11 270.54 933.83 266.58L934.37 263.7H966.77L966.41 265.86C966.17 267.06 966.05 268.14 966.05 269.1Z" stroke="white" stroke-width="4"/>
<path d="M1178.94 176.4L1128.18 241.74L1156.08 306H1119.18L1101.54 264.6L1071.84 306H1034.94L1082.64 241.74L1057.8 176.4H1094.7L1109.64 218.52L1142.04 176.4H1178.94Z" stroke="white" stroke-width="4"/>
<defs>
<linearGradient id="paint0_linear_102_5" x1="0" y1="0" x2="1500" y2="500" gradientUnits="userSpaceOnUse">
<stop stop-color="#667EEA"/>
<stop offset="1" stop-color="#764BA2"/>
</linearGradient>
</defs>
</svg>
