<?xml version="1.0" encoding="UTF-8"?>
<svg fill="none" viewBox="0 0 851 138" xmlns="http://www.w3.org/2000/svg">
<style>svg{background-image:radial-gradient(circle farthest-corner at 10% 20%,#00989b .1%,#005e78 94.2%);background-repeat:no-repeat;padding:170px 320px}svg .svg-elem-1{stroke-dashoffset:625.8881225585938px;stroke-dasharray:625.8881225585938px;fill:transparent;-webkit-transition:stroke-dashoffset .7s ease-in-out,fill .4s 1.8s;transition:stroke-dashoffset .7s ease-in-out,fill .4s 1.8s}svg.active .svg-elem-1,svg.active .svg-elem-2,svg.active .svg-elem-3,svg.active .svg-elem-4,svg.active .svg-elem-5,svg.active .svg-elem-6,svg.active .svg-elem-7{stroke-dashoffset:0;fill:rgb(255,255,255)}svg .svg-elem-2{stroke-dashoffset:613.698974609375px;stroke-dasharray:613.698974609375px;fill:transparent;-webkit-transition:stroke-dashoffset .7s ease-in-out .1s,fill .4s 1.8s;transition:stroke-dashoffset .7s ease-in-out .1s,fill .4s 1.8s}svg .svg-elem-3,svg .svg-elem-4{stroke-dashoffset:679.8017578125px;stroke-dasharray:679.8017578125px;fill:transparent}svg .svg-elem-3{-webkit-transition:stroke-dashoffset .7s ease-in-out .2s,fill .4s 1.8s;transition:stroke-dashoffset .7s ease-in-out .2s,fill .4s 1.8s}svg .svg-elem-4{-webkit-transition:stroke-dashoffset .7s ease-in-out .30000000000000004s,fill .4s 1.8s;transition:stroke-dashoffset .7s ease-in-out .30000000000000004s,fill .4s 1.8s}svg .svg-elem-5{stroke-dashoffset:657.6024169921875px;stroke-dasharray:657.6024169921875px;fill:transparent;-webkit-transition:stroke-dashoffset .7s ease-in-out .4s,fill .4s 1.8s;transition:stroke-dashoffset .7s ease-in-out .4s,fill .4s 1.8s}svg .svg-elem-6{stroke-dashoffset:672.029052734375px;stroke-dasharray:672.029052734375px;fill:transparent;-webkit-transition:stroke-dashoffset .7s ease-in-out .5s,fill .4s 1.8s;transition:stroke-dashoffset .7s ease-in-out .5s,fill .4s 1.8s}svg .svg-elem-7{stroke-dashoffset:646.1105346679688px;stroke-dasharray:646.1105346679688px;fill:transparent;-webkit-transition:stroke-dashoffset .7s ease-in-out .6000000000000001s,fill .4s 1.8s;transition:stroke-dashoffset .7s ease-in-out .6000000000000001s,fill .4s 1.8s}svg .svg-elem-8{stroke-dashoffset:625.8881225585938px;stroke-dasharray:625.8881225585938px;-webkit-transition:stroke-dashoffset .7s ease-in-out .7000000000000001s,fill .4s 1.8s;transition:stroke-dashoffset .7s ease-in-out .7000000000000001s,fill .4s 1.8s}svg.active .svg-elem-10,svg.active .svg-elem-11,svg.active .svg-elem-12,svg.active .svg-elem-13,svg.active .svg-elem-14,svg.active .svg-elem-8,svg.active .svg-elem-9{stroke-dashoffset:0}svg .svg-elem-9{stroke-dashoffset:613.698974609375px;stroke-dasharray:613.698974609375px;-webkit-transition:stroke-dashoffset .7s ease-in-out .8s,fill .4s 1.8s;transition:stroke-dashoffset .7s ease-in-out .8s,fill .4s 1.8s}svg .svg-elem-10,svg .svg-elem-11{stroke-dashoffset:679.8017578125px;stroke-dasharray:679.8017578125px}svg .svg-elem-10{-webkit-transition:stroke-dashoffset .7s ease-in-out .9s,fill .4s 1.8s;transition:stroke-dashoffset .7s ease-in-out .9s,fill .4s 1.8s}svg .svg-elem-11{-webkit-transition:stroke-dashoffset .7s ease-in-out 1s,fill .4s 1.8s;transition:stroke-dashoffset .7s ease-in-out 1s,fill .4s 1.8s}svg .svg-elem-12{stroke-dashoffset:657.6024169921875px;stroke-dasharray:657.6024169921875px;-webkit-transition:stroke-dashoffset .7s ease-in-out 1.1s,fill .4s 1.8s;transition:stroke-dashoffset .7s ease-in-out 1.1s,fill .4s 1.8s}svg .svg-elem-13{stroke-dashoffset:672.029052734375px;stroke-dasharray:672.029052734375px;-webkit-transition:stroke-dashoffset .7s ease-in-out 1.2000000000000002s,fill .4s 1.8s;transition:stroke-dashoffset .7s ease-in-out 1.2000000000000002s,fill .4s 1.8s}svg .svg-elem-14{stroke-dashoffset:646.1105346679688px;stroke-dasharray:646.1105346679688px;-webkit-transition:stroke-dashoffset .7s ease-in-out 1.3s,fill .4s 1.8s;transition:stroke-dashoffset .7s ease-in-out 1.3s,fill .4s 1.8s}</style>
<path class="svg-elem-1" d="m75.68 3.4c15.72 0 26.94 3.96 33.66 11.88 4.92 6 7.38 13.5 7.38 22.5 0 3.24-0.3 6.66-0.9 10.26l-7.02 40.14c-2.4 13.56-8.28 24.42-17.64 32.58s-21.48 12.24-36.36 12.24h-52.38l22.86-129.6h50.4zm-11.34 28.08h-11.7l-12.78 73.44h17.1c5.64 0 10.02-1.5 13.14-4.5 3.24-3.12 5.46-8.16 6.66-15.12l5.22-29.52c0.4801-2.64 0.7201-5.04 0.7201-7.2 0-11.4-6.1201-17.1-18.36-17.1z" fill="#fff"/>
<path class="svg-elem-2" d="m185.33 133 1.08-28.26h-30.06l-8.82 28.26h-34.38l46.26-129.6h59.4l0.72 129.6h-34.2zm-7.38-98.1-14.22 45.72h23.58l1.98-45.72h-11.34z" fill="#fff"/>
<path class="svg-elem-3" d="m359.32 3.4-22.68 129.6h-32.58l-22.68-70.92-12.24 70.92h-32.58l22.86-129.6h33.48l22.32 66.24 11.7-66.24h32.4z" fill="#fff"/>
<path class="svg-elem-4" d="m484.83 3.4-22.68 129.6h-32.58l-22.68-70.92-12.24 70.92h-32.58l22.86-129.6h33.48l22.32 66.24 11.7-66.24h32.4z" fill="#fff"/>
<path class="svg-elem-5" d="m577.94 133h-90.36l22.86-129.6h90.36l-5.04 28.08h-57.96l-4.14 24.3h47.88l-5.04 28.08h-47.88l-3.6 21.06h57.96l-5.04 28.08z" fill="#fff"/>
<path class="svg-elem-6" d="m633.05 96.1c0 8.28 5.94 12.42 17.82 12.42 12 0 18-3.72 18-11.16 0-3.96-2.04-7.2-6.12-9.72s-9.06-4.62-14.94-6.3c-5.76-1.68-11.58-3.6-17.46-5.76-5.76-2.28-10.68-5.76-14.76-10.44-4.08-4.8-6.12-10.74-6.12-17.82 0-30.12 19.38-45.18 58.14-45.18 14.16 0 24.84 2.7 32.04 8.1 7.32 5.28 10.98 12.66 10.98 22.14 0 3.48-0.48 6.84-1.44 10.08-0.84 3.12-1.74 5.34-2.7 6.66l-1.44 2.16h-31.86c2.64-2.76 3.96-6.24 3.96-10.44 0-7.8-5.1-11.7-15.3-11.7-12.84 0-19.26 4.08-19.26 12.24 0 4.08 2.04 7.32 6.12 9.72s9 4.32 14.76 5.76c5.88 1.32 11.76 3 17.64 5.04s10.86 5.46 14.94 10.26c4.08 4.68 6.12 10.8 6.12 18.36 0 15.24-4.56 26.58-13.68 34.02-9.12 7.32-23.16 10.98-42.12 10.98s-31.92-3.36-38.88-10.08c-5.16-5.04-7.74-12-7.74-20.88 0-3.36 0.36-7.02 1.08-10.98l0.54-2.88h32.4l-0.36 2.16c-0.24 1.2-0.36 2.28-0.36 3.24z" fill="#fff"/>
<path class="svg-elem-7" d="m845.94 3.4-50.76 65.34 27.9 64.26h-36.9l-17.64-41.4-29.7 41.4h-36.9l47.7-64.26-24.84-65.34h36.9l14.94 42.12 32.4-42.12h36.9z" fill="#fff"/>
<path class="svg-elem-8" d="m75.68 3.4c15.72 0 26.94 3.96 33.66 11.88 4.92 6 7.38 13.5 7.38 22.5 0 3.24-0.3 6.66-0.9 10.26l-7.02 40.14c-2.4 13.56-8.28 24.42-17.64 32.58s-21.48 12.24-36.36 12.24h-52.38l22.86-129.6h50.4zm-11.34 28.08h-11.7l-12.78 73.44h17.1c5.64 0 10.02-1.5 13.14-4.5 3.24-3.12 5.46-8.16 6.66-15.12l5.22-29.52c0.4801-2.64 0.7201-5.04 0.7201-7.2 0-11.4-6.1201-17.1-18.36-17.1z" stroke="#fff" stroke-width="4"/>
<path class="svg-elem-9" d="m185.33 133 1.08-28.26h-30.06l-8.82 28.26h-34.38l46.26-129.6h59.4l0.72 129.6h-34.2zm-7.38-98.1-14.22 45.72h23.58l1.98-45.72h-11.34z" stroke="#fff" stroke-width="4"/>
<path class="svg-elem-10" d="m359.32 3.4-22.68 129.6h-32.58l-22.68-70.92-12.24 70.92h-32.58l22.86-129.6h33.48l22.32 66.24 11.7-66.24h32.4z" stroke="#fff" stroke-width="4"/>
<path class="svg-elem-11" d="m484.83 3.4-22.68 129.6h-32.58l-22.68-70.92-12.24 70.92h-32.58l22.86-129.6h33.48l22.32 66.24 11.7-66.24h32.4z" stroke="#fff" stroke-width="4"/>
<path class="svg-elem-12" d="m577.94 133h-90.36l22.86-129.6h90.36l-5.04 28.08h-57.96l-4.14 24.3h47.88l-5.04 28.08h-47.88l-3.6 21.06h57.96l-5.04 28.08z" stroke="#fff" stroke-width="4"/>
<path class="svg-elem-13" d="m633.05 96.1c0 8.28 5.94 12.42 17.82 12.42 12 0 18-3.72 18-11.16 0-3.96-2.04-7.2-6.12-9.72s-9.06-4.62-14.94-6.3c-5.76-1.68-11.58-3.6-17.46-5.76-5.76-2.28-10.68-5.76-14.76-10.44-4.08-4.8-6.12-10.74-6.12-17.82 0-30.12 19.38-45.18 58.14-45.18 14.16 0 24.84 2.7 32.04 8.1 7.32 5.28 10.98 12.66 10.98 22.14 0 3.48-0.48 6.84-1.44 10.08-0.84 3.12-1.74 5.34-2.7 6.66l-1.44 2.16h-31.86c2.64-2.76 3.96-6.24 3.96-10.44 0-7.8-5.1-11.7-15.3-11.7-12.84 0-19.26 4.08-19.26 12.24 0 4.08 2.04 7.32 6.12 9.72s9 4.32 14.76 5.76c5.88 1.32 11.76 3 17.64 5.04s10.86 5.46 14.94 10.26c4.08 4.68 6.12 10.8 6.12 18.36 0 15.24-4.56 26.58-13.68 34.02-9.12 7.32-23.16 10.98-42.12 10.98s-31.92-3.36-38.88-10.08c-5.16-5.04-7.74-12-7.74-20.88 0-3.36 0.36-7.02 1.08-10.98l0.54-2.88h32.4l-0.36 2.16c-0.24 1.2-0.36 2.28-0.36 3.24z" stroke="#fff" stroke-width="4"/>
<path class="svg-elem-14" d="m845.94 3.4-50.76 65.34 27.9 64.26h-36.9l-17.64-41.4-29.7 41.4h-36.9l47.7-64.26-24.84-65.34h36.9l14.94 42.12 32.4-42.12h36.9z" stroke="#fff" stroke-width="4"/>
<script>const svg=document.querySelector("svg");function draw(){svg.classList.toggle("active")}window.onload=draw,setInterval(draw,5e3);</script>
</svg>