<svg width="1540" height="540" viewBox="0 0 1540 540" fill="none" xmlns="http://www.w3.org/2000/svg">
<g filter="url(#filter0_d_2_6)">
<rect x="20" y="10" width="1500" height="500" rx="40" fill="url(#paint0_linear_2_6)" shape-rendering="crispEdges"/>
<g filter="url(#filter1_di_2_6)">
<path d="M370 192V284.108C370 288.526 373.582 292.108 378 292.108H383.622C388.04 292.108 391.622 288.526 391.622 284.108V213.622C391.622 209.203 395.203 205.622 399.622 205.622H426.865C431.283 205.622 434.865 209.203 434.865 213.622V305.73C434.865 310.148 431.283 313.73 426.865 313.73H378C373.582 313.73 370 317.311 370 321.73V327.351C370 331.77 373.582 335.351 378 335.351H448.486C452.905 335.351 456.486 331.77 456.486 327.351V192C456.486 187.582 452.905 184 448.486 184H378C373.582 184 370 187.582 370 192Z" fill="white"/>
<path d="M498.748 190.869L479.413 326.22C478.724 331.039 482.464 335.351 487.332 335.351H492.953C496.863 335.351 500.201 332.524 500.844 328.667L519.379 217.458C519.75 215.23 522.953 215.23 523.324 217.458L541.859 328.667C542.502 332.524 545.839 335.351 549.75 335.351H555.37C560.239 335.351 563.979 331.039 563.29 326.22L543.954 190.869C543.391 186.927 540.016 184 536.035 184H506.668C502.687 184 499.312 186.927 498.748 190.869Z" fill="white"/>
<path d="M586.216 192V327.351C586.216 331.77 589.798 335.351 594.216 335.351H599.838C604.256 335.351 607.838 331.77 607.838 327.351V234.464C607.838 232.435 610.509 231.696 611.553 233.435L670.372 331.467C671.818 333.877 674.422 335.351 677.232 335.351H686.324C690.743 335.351 694.324 331.77 694.324 327.351V192C694.324 187.582 690.743 184 686.324 184H680.703C676.284 184 672.703 187.582 672.703 192V284.887C672.703 286.916 670.031 287.656 668.988 285.916L610.168 187.884C608.722 185.474 606.118 184 603.308 184H594.216C589.798 184 586.216 187.582 586.216 192Z" fill="white"/>
<path d="M715.946 192V327.351C715.946 331.77 719.528 335.351 723.946 335.351H729.568C733.986 335.351 737.568 331.77 737.568 327.351V234.464C737.568 232.435 740.239 231.696 741.283 233.435L800.102 331.467C801.548 333.877 804.152 335.351 806.962 335.351H816.054C820.472 335.351 824.054 331.77 824.054 327.351V192C824.054 187.582 820.472 184 816.054 184H810.432C806.014 184 802.432 187.582 802.432 192V284.887C802.432 286.916 799.761 287.656 798.717 285.916L739.898 187.884C738.452 185.474 735.848 184 733.038 184H723.946C719.528 184 715.946 187.582 715.946 192Z" fill="white"/>
<path d="M845.676 327.351V321.73C845.676 317.311 849.257 313.73 853.676 313.73H924.162C928.58 313.73 932.162 317.311 932.162 321.73V327.351C932.162 331.77 928.58 335.351 924.162 335.351H853.676C849.257 335.351 845.676 331.77 845.676 327.351Z" fill="white"/>
<path d="M845.676 262.486V256.865C845.676 252.447 849.257 248.865 853.676 248.865H924.162C928.58 248.865 932.162 252.447 932.162 256.865V262.486C932.162 266.905 928.58 270.486 924.162 270.486H853.676C849.257 270.486 845.676 266.905 845.676 262.486Z" fill="white"/>
<path d="M845.676 197.622V192C845.676 187.582 849.257 184 853.676 184H924.162C928.58 184 932.162 187.582 932.162 192V197.622C932.162 202.04 928.58 205.622 924.162 205.622H853.676C849.257 205.622 845.676 202.04 845.676 197.622Z" fill="white"/>
<path d="M953.784 327.351V321.73C953.784 317.311 957.366 313.73 961.784 313.73H1010.65C1015.07 313.73 1018.65 310.148 1018.65 305.73V278.486C1018.65 274.068 1015.07 270.486 1010.65 270.486H961.784C957.366 270.486 953.784 266.905 953.784 262.486V192C953.784 187.582 957.366 184 961.784 184H1032.27C1036.69 184 1040.27 187.582 1040.27 192V197.622C1040.27 202.04 1036.69 205.622 1032.27 205.622H983.405C978.987 205.622 975.405 209.203 975.405 213.622V240.865C975.405 245.283 978.987 248.865 983.405 248.865H1032.27C1036.69 248.865 1040.27 252.447 1040.27 256.865V327.351C1040.27 331.77 1036.69 335.351 1032.27 335.351H961.784C957.366 335.351 953.784 331.77 953.784 327.351Z" fill="white"/>
<path d="M1068.73 323.382L1105.14 259.676L1068.73 195.969C1065.68 190.636 1069.53 184 1075.68 184H1078.87C1081.74 184 1084.39 185.538 1085.82 188.031L1115.95 240.757L1146.08 188.031C1147.5 185.538 1150.15 184 1153.02 184H1156.21C1162.36 184 1166.21 190.636 1163.16 195.969L1126.76 259.676L1163.16 323.382C1166.21 328.715 1162.36 335.351 1156.21 335.351H1153.02C1150.15 335.351 1147.5 333.813 1146.08 331.32L1115.95 278.595L1085.82 331.32C1084.39 333.813 1081.74 335.351 1078.87 335.351H1075.68C1069.53 335.351 1065.68 328.715 1068.73 323.382Z" fill="white"/>
</g>
</g>
<defs>
<filter id="filter0_d_2_6" x="0" y="0" width="1540" height="540" filterUnits="userSpaceOnUse" color-interpolation-filters="sRGB">
<feFlood flood-opacity="0" result="BackgroundImageFix"/>
<feColorMatrix in="SourceAlpha" type="matrix" values="0 0 0 0 0 0 0 0 0 0 0 0 0 0 0 0 0 0 127 0" result="hardAlpha"/>
<feOffset dy="10"/>
<feGaussianBlur stdDeviation="10"/>
<feComposite in2="hardAlpha" operator="out"/>
<feColorMatrix type="matrix" values="0 0 0 0 0 0 0 0 0 0 0 0 0 0 0 0 0 0 0.25 0"/>
<feBlend mode="normal" in2="BackgroundImageFix" result="effect1_dropShadow_2_6"/>
<feBlend mode="normal" in="SourceGraphic" in2="effect1_dropShadow_2_6" result="shape"/>
</filter>
<filter id="filter1_di_2_6" x="358" y="172" width="818.226" height="175.351" filterUnits="userSpaceOnUse" color-interpolation-filters="sRGB">
<feFlood flood-opacity="0" result="BackgroundImageFix"/>
<feColorMatrix in="SourceAlpha" type="matrix" values="0 0 0 0 0 0 0 0 0 0 0 0 0 0 0 0 0 0 127 0" result="hardAlpha"/>
<feOffset/>
<feGaussianBlur stdDeviation="6"/>
<feComposite in2="hardAlpha" operator="out"/>
<feColorMatrix type="matrix" values="0 0 0 0 1 0 0 0 0 1 0 0 0 0 1 0 0 0 0.9 0"/>
<feBlend mode="normal" in2="BackgroundImageFix" result="effect1_dropShadow_2_6"/>
<feBlend mode="normal" in="SourceGraphic" in2="effect1_dropShadow_2_6" result="shape"/>
<feColorMatrix in="SourceAlpha" type="matrix" values="0 0 0 0 0 0 0 0 0 0 0 0 0 0 0 0 0 0 127 0" result="hardAlpha"/>
<feOffset dy="4"/>
<feGaussianBlur stdDeviation="5"/>
<feComposite in2="hardAlpha" operator="arithmetic" k2="-1" k3="1"/>
<feColorMatrix type="matrix" values="0 0 0 0 0 0 0 0 0 0 0 0 0 0 0 0 0 0 0.3 0"/>
<feBlend mode="normal" in2="shape" result="effect2_innerShadow_2_6"/>
</filter>
<linearGradient id="paint0_linear_2_6" x1="31.5" y1="26" x2="1500.5" y2="497" gradientUnits="userSpaceOnUse">
<stop stop-color="#F44369"/>
<stop offset="1" stop-color="#3E3B92"/>
</linearGradient>
</defs>
</svg>
